<svg width="148" height="28" fill="none" xmlns="http://www.w3.org/2000/svg"><path fill-rule="evenodd" clip-rule="evenodd" d="M24.833 12.934l-1.693.949c-.857.48-1.768.86-2.713 1.13l-.467.133a9.21 9.21 0 01-2.53.354h-.223a7.622 7.622 0 01-2.093-.293l-.304-.087a6.397 6.397 0 01-2.766-1.628l-.073-.073a8.358 8.358 0 00-7.723-2.249l-.835.186c-.629.14-1.243.338-1.834.591l-1.504.645C.994 6.594 6.175 2 12.43 2c6.373 0 11.633 4.77 12.403 10.934zm-.046 3.465l-.18.1a15.671 15.671 0 01-3.356 1.398l-.466.133a12.2 12.2 0 01-3.355.47h-.223c-.986 0-1.968-.137-2.917-.409l-.304-.087a9.398 9.398 0 01-4.064-2.39l-.072-.073a5.356 5.356 0 00-4.951-1.442l-.836.186c-.446.099-.882.24-1.303.42L.021 15.879 0 15.829C.664 22.11 5.976 27 12.43 27c6.258 0 11.442-4.599 12.357-10.6z" fill="#000"/><path d="M45.056 23a33.243 33.243 0 00-.6-1.776l-.624-1.824h-6.48a82.842 82.842 0 01-.648 1.824c-.208.608-.4 1.2-.576 1.776H32.24a296.007 296.007 0 011.776-4.968c.56-1.52 1.104-2.952 1.632-4.296a221.682 221.682 0 011.584-3.816 91.287 91.287 0 011.632-3.552h3.576c.544 1.152 1.08 2.336 1.608 3.552.528 1.2 1.056 2.472 1.584 3.816a145.967 145.967 0 011.656 4.296c.56 1.52 1.152 3.176 1.776 4.968h-4.008zm-4.488-12.864c-.08.24-.2.568-.36.984l-.552 1.44c-.208.544-.44 1.144-.696 1.8-.24.656-.488 1.344-.744 2.064h4.728c-.256-.72-.504-1.408-.744-2.064a48.66 48.66 0 00-.696-1.8l-.552-1.44c-.16-.416-.288-.744-.384-.984zm18.017 3.408c-.32-.08-.696-.16-1.128-.24a6.41 6.41 0 00-1.392-.144 5.64 5.64 0 00-.816.072 4.05 4.05 0 00-.696.12V23h-3.576V11.048c.64-.224 1.392-.432 2.256-.624.88-.208 1.856-.312 2.928-.312.192 0 .424.016.696.048.272.016.544.048.816.096.272.032.544.08.816.144.272.048.504.112.696.192l-.6 2.952zm1.682 3.144c0-.912.144-1.768.432-2.568a6.164 6.164 0 011.297-2.112 6.044 6.044 0 012.04-1.44c.8-.352 1.712-.528 2.736-.528.671 0 1.287.064 1.847.192.56.112 1.105.28 1.632.504l-.744 2.856a9.013 9.013 0 00-1.104-.336 5.77 5.77 0 00-1.344-.144c-1.055 0-1.847.328-2.376.984-.512.656-.768 1.52-.768 2.592 0 1.136.24 2.016.72 2.64.496.624 1.352.936 2.569.936.431 0 .896-.04 1.392-.12.495-.08.951-.208 1.367-.384l.505 2.928c-.416.176-.937.328-1.56.456a10.29 10.29 0 01-2.064.192c-1.152 0-2.144-.168-2.976-.504-.833-.352-1.52-.824-2.065-1.416a5.708 5.708 0 01-1.175-2.088 9.318 9.318 0 01-.36-2.64zm12.48-9.456l3.576-.576v3.72h4.297v2.976h-4.297v4.44c0 .752.129 1.352.385 1.8.272.448.808.672 1.608.672.383 0 .775-.032 1.175-.096.416-.08.793-.184 1.129-.312l.504 2.784c-.432.176-.912.328-1.44.456-.528.128-1.177.192-1.944.192-.977 0-1.784-.128-2.424-.384-.64-.272-1.153-.64-1.537-1.104-.383-.48-.655-1.056-.816-1.728a10.672 10.672 0 01-.215-2.232V7.232zM87.108 23h-3.575V10.376h3.576V23zm.337-16.272c0 .656-.216 1.176-.648 1.56a2.17 2.17 0 01-1.488.552 2.26 2.26 0 01-1.512-.552c-.416-.384-.624-.904-.624-1.56s.208-1.168.624-1.536a2.205 2.205 0 011.512-.576c.576 0 1.072.192 1.488.576.432.368.648.88.648 1.536zm7.85 13.776c.351 0 .687-.008 1.007-.024.32-.016.576-.04.768-.072v-2.712a6.602 6.602 0 00-.648-.096 7.216 7.216 0 00-.792-.048c-.336 0-.656.024-.96.072a2.263 2.263 0 00-.768.216c-.224.112-.4.264-.528.456s-.192.432-.192.72c0 .56.184.952.552 1.176.384.208.904.312 1.56.312zm-.289-10.464c1.056 0 1.936.12 2.64.36.704.24 1.264.584 1.68 1.032.432.448.736.992.912 1.632a8.05 8.05 0 01.264 2.136v7.44a39.19 39.19 0 01-2.136.384c-.912.16-2.016.24-3.312.24-.816 0-1.56-.072-2.232-.216-.656-.144-1.224-.376-1.704-.696a3.33 3.33 0 01-1.104-1.296c-.256-.528-.384-1.176-.384-1.944 0-.736.144-1.36.432-1.872.304-.512.704-.92 1.2-1.224a5.172 5.172 0 011.704-.648 9.048 9.048 0 011.992-.216c.464 0 .872.024 1.224.072.368.032.664.08.888.144v-.336c0-.608-.184-1.096-.552-1.464-.368-.368-1.008-.552-1.92-.552-.608 0-1.208.048-1.8.144-.592.08-1.104.2-1.536.36l-.456-2.88c.208-.064.464-.128.768-.192.32-.08.664-.144 1.032-.192a12.58 12.58 0 011.152-.144c.416-.048.832-.072 1.248-.072zm8.73.768c.608-.176 1.392-.336 2.352-.48.96-.16 1.968-.24 3.024-.24 1.072 0 1.96.144 2.664.432.72.272 1.288.664 1.704 1.176.416.512.712 1.12.888 1.824.176.704.264 1.488.264 2.352V23h-3.576v-6.696c0-1.152-.152-1.968-.456-2.448-.304-.48-.872-.72-1.704-.72-.256 0-.528.016-.816.048-.288.016-.544.04-.768.072V23h-3.576V10.808zM121.444 23h-3.576V10.376h3.576V23zm.336-16.272c0 .656-.216 1.176-.648 1.56a2.17 2.17 0 01-1.488.552 2.26 2.26 0 01-1.512-.552c-.416-.384-.624-.904-.624-1.56s.208-1.168.624-1.536a2.205 2.205 0 011.512-.576c.576 0 1.072.192 1.488.576.432.368.648.88.648 1.536zm2.425 9.96c0-.912.144-1.768.432-2.568a6.164 6.164 0 011.296-2.112 6.044 6.044 0 012.04-1.44c.8-.352 1.712-.528 2.736-.528.672 0 1.288.064 1.848.192.56.112 1.104.28 1.632.504l-.744 2.856a9.013 9.013 0 00-1.104-.336 5.77 5.77 0 00-1.344-.144c-1.056 0-1.848.328-2.376.984-.512.656-.768 1.52-.768 2.592 0 1.136.24 2.016.72 2.64.496.624 1.352.936 2.568.936.432 0 .896-.04 1.392-.12.496-.08.952-.208 1.368-.384l.504 2.928c-.416.176-.936.328-1.56.456a10.29 10.29 0 01-2.064.192c-1.152 0-2.144-.168-2.976-.504-.832-.352-1.52-.824-2.064-1.416a5.708 5.708 0 01-1.176-2.088 9.318 9.318 0 01-.36-2.64zm16.815 3.816c.352 0 .688-.008 1.008-.024.32-.016.576-.04.768-.072v-2.712a6.602 6.602 0 00-.648-.096 7.216 7.216 0 00-.792-.048c-.336 0-.656.024-.96.072a2.263 2.263 0 00-.768.216c-.224.112-.4.264-.528.456s-.192.432-.192.72c0 .56.184.952.552 1.176.384.208.904.312 1.56.312zm-.288-10.464c1.056 0 1.936.12 2.64.36.704.24 1.264.584 1.68 1.032.432.448.736.992.912 1.632a8.05 8.05 0 01.264 2.136v7.44c-.512.112-1.224.24-2.136.384-.912.16-2.016.24-3.312.24-.816 0-1.56-.072-2.232-.216-.656-.144-1.224-.376-1.704-.696a3.33 3.33 0 01-1.104-1.296c-.256-.528-.384-1.176-.384-1.944 0-.736.144-1.36.432-1.872.304-.512.704-.92 1.2-1.224a5.172 5.172 0 011.704-.648 9.048 9.048 0 011.992-.216c.464 0 .872.024 1.224.072.368.032.664.08.888.144v-.336c0-.608-.184-1.096-.552-1.464-.368-.368-1.008-.552-1.92-.552-.608 0-1.208.048-1.8.144-.592.08-1.104.2-1.536.36l-.456-2.88c.208-.064.464-.128.768-.192.32-.08.664-.144 1.032-.192a12.58 12.58 0 011.152-.144c.416-.048.832-.072 1.248-.072z" fill="#000"/></svg>