<svg width="40" height="40" fill="none" xmlns="http://www.w3.org/2000/svg"><path d="M40 9.1a25.22 25.22 0 00-.2-2.58 8.578 8.578 0 00-.74-2.16 7.32 7.32 0 00-1.42-2 7.82 7.82 0 00-2-1.42 8.56 8.56 0 00-2.16-.72A20.42 20.42 0 0030.92 0H9.1a25.22 25.22 0 00-2.58.2 8.58 8.58 0 00-2.16.74 7.32 7.32 0 00-2 1.42 7.82 7.82 0 00-1.42 2 8.56 8.56 0 00-.72 2.16A20.42 20.42 0 000 9.08V30.9c.022.863.09 1.724.2 2.58.15.75.398 1.476.74 2.16a7.32 7.32 0 001.42 2 7.82 7.82 0 002 1.42 8.559 8.559 0 002.16.72c.848.127 1.703.2 2.56.22H30.9a25.59 25.59 0 002.58-.2 8.577 8.577 0 002.16-.74 7.32 7.32 0 002-1.42 7.82 7.82 0 001.42-2 8.559 8.559 0 00.72-2.16c.127-.848.2-1.703.22-2.56V9.1zM20.46 34a14.24 14.24 0 01-6.86-1.8l-7.6 2 2-7.44a14.22 14.22 0 01-2-7.16A14.36 14.36 0 1120.46 34zm0-26.26A12 12 0 0010.36 26l.28.46-1.2 4.38L14 29.6l.44.26a12 12 0 006 1.66 12 12 0 000-24l.02.22zm7 17.04a3.641 3.641 0 01-2.42 1.7 4.66 4.66 0 01-2.24-.14 17.8 17.8 0 01-2-.76 16 16 0 01-6.12-5.4 6.96 6.96 0 01-1.46-3.7 4 4 0 011.26-3 1.3 1.3 0 01.96-.44H16c.22 0 .52 0 .8.62s1.02 2.48 1.12 2.66a.68.68 0 010 .62 2.28 2.28 0 01-.36.6c-.18.22-.38.48-.54.64-.16.16-.36.36-.16.72a11.122 11.122 0 002 2.48 10 10 0 002.88 1.78c.36.18.58.16.78 0 .2-.16.9-1.04 1.14-1.4.24-.36.48-.3.8-.18.32.12 2.1.98 2.46 1.16.36.18.58.26.68.42a3.12 3.12 0 01-.14 1.56v.06z" fill="#fff"/></svg>