<svg width="40" height="40" fill="none" xmlns="http://www.w3.org/2000/svg"><path d="M40 20a20 20 0 11-40 0 20 20 0 0140 0zm-19.282-5.235c-1.945.81-5.835 2.485-11.665 5.025-.946.375-1.443.745-1.488 1.105-.075.608.687.848 1.725 1.175l.438.137c1.02.333 2.395.72 3.107.735.65.015 1.372-.25 2.17-.8 5.447-3.677 8.26-5.534 8.435-5.575.125-.03.3-.064.415.04.117.103.105.3.093.353-.076.322-3.068 3.102-4.616 4.543-.482.45-.825.767-.895.84-.154.157-.31.312-.47.465-.95.915-1.66 1.6.038 2.72.818.54 1.473.982 2.125 1.427.71.485 1.42.968 2.34 1.573.233.15.457.312.675.467.828.59 1.575 1.12 2.492 1.035.535-.05 1.088-.55 1.368-2.05.663-3.543 1.965-11.215 2.265-14.378a3.566 3.566 0 00-.032-.787.842.842 0 00-.285-.542 1.315 1.315 0 00-.776-.233c-.75.013-1.907.415-7.46 2.725z" fill="#fff"/></svg>